<svg width="111" height="32" viewBox="0 0 111 32" fill="none" xmlns="http://www.w3.org/2000/svg">
<path d="M37.5211 8.63257H39.5954C40.4772 8.63257 41.1918 9.34542 41.1918 10.2245V19.0319H48.2142V20.8886C48.2142 21.7677 47.4995 22.4805 46.6177 22.4805H37.5211V8.63257Z" fill="#344054"/>
<path d="M60.5308 15.7156C60.5308 13.5939 58.9346 11.9756 56.7806 11.9753C54.7404 11.9748 53.1213 13.5484 53.0574 15.5817C52.9886 17.7698 54.6067 19.456 56.7798 19.456C58.9344 19.456 60.5308 17.8382 60.5308 15.7156ZM49.4899 15.7156C49.4899 11.6836 52.3366 8.63244 56.1141 8.63244C57.9236 8.63244 59.44 9.3491 60.5308 10.5428C60.5308 9.66346 61.2457 8.95087 62.1272 8.95087H63.9892V22.4804H62.1272C61.2457 22.4804 60.5308 21.7678 60.5308 20.8885C59.44 22.0829 57.9236 22.7988 56.1141 22.7988C52.3366 22.7988 49.4899 19.7477 49.4899 15.7156Z" fill="#344054"/>
<path d="M66.4924 8.95081H68.4339C69.2716 8.95081 69.9508 9.62807 69.9508 10.4634C71.0602 9.21841 72.6316 8.57977 74.4849 8.63594C77.3166 8.72209 79.555 11.0672 79.555 13.8922V22.4806H76.0966V14.9997C76.0966 13.1689 74.9261 11.9752 73.1431 11.9752C71.2273 11.9752 69.9508 13.1953 69.9508 15.0525V22.4806H66.4924V8.95081Z" fill="#344054"/>
<path d="M81.0776 15.7156C81.0776 11.6836 84.2169 8.63244 88.3673 8.63244C91.985 8.63244 94.8052 10.9405 95.3373 14.1507H91.6659C91.214 12.8505 89.9367 11.9753 88.3673 11.9753C86.2387 11.9753 84.6423 13.5936 84.6423 15.7156C84.6423 17.8382 86.2387 19.456 88.3673 19.456C89.9367 19.456 91.214 18.5807 91.6659 17.2811H95.3373C94.8052 20.4908 91.985 22.7988 88.3673 22.7988C84.2169 22.7988 81.0776 19.7477 81.0776 15.7156Z" fill="#344054"/>
<path d="M107.542 15.7156C107.542 13.5939 105.945 11.9756 103.791 11.9753C101.751 11.9751 100.132 13.5481 100.068 15.5815C99.9994 17.7695 101.617 19.456 103.791 19.456C105.945 19.456 107.542 17.8382 107.542 15.7156ZM96.5007 15.7156C96.5007 11.6836 99.3474 8.63244 103.125 8.63244C104.934 8.63244 106.451 9.3491 107.542 10.5428C107.542 9.66346 108.256 8.95087 109.138 8.95087H111V22.4804H109.138C108.256 22.4804 107.542 21.7678 107.542 20.8885C106.451 22.0829 104.934 22.7988 103.125 22.7988C99.3474 22.7988 96.5007 19.7477 96.5007 15.7156Z" fill="#344054"/>
<path d="M14.9826 9.14903L14.987 9.14466C14.9901 9.14159 18.7733 5.32111 22.5709 9.11008C18.9878 5.53513 12.1084 4.41511 7.36761 9.14466L6.17703 10.3277C8.27304 12.4329 11.6846 12.4386 13.7881 10.3404L14.0434 10.0857C14.5545 9.54557 14.959 9.17048 14.9822 9.14903H14.9826Z" fill="url(#paint0_linear_1612_52608)"/>
<path d="M22.5718 9.11007C18.7741 5.3211 14.9905 9.14158 14.9879 9.14465L14.9831 9.14903C14.9831 9.14903 14.2518 9.82961 14.0443 10.0857C14.833 9.56876 15.6621 9.8178 15.9626 10.1172C16.5667 10.7198 22.6012 16.7405 22.6012 16.7405C24.7051 18.8396 28.1162 18.8396 30.2201 16.7405C30.2201 16.7405 23.7702 10.3054 22.5722 9.11007H22.5718Z" fill="url(#paint1_linear_1612_52608)"/>
<path d="M15.2371 22.851L15.2327 22.8554C15.2296 22.8584 11.4464 26.6789 7.6488 22.8899C11.2319 26.4649 18.1113 27.5849 22.8521 22.8554L24.0427 21.6723C21.9467 19.5671 18.5351 19.5614 16.4316 21.6596L16.1763 21.9143C15.6652 22.4544 15.2608 22.8295 15.2375 22.851H15.2371Z" fill="url(#paint2_linear_1612_52608)"/>
<path d="M7.64837 22.8899C11.446 26.6789 15.2296 22.8584 15.2323 22.8553L15.2371 22.851C15.2371 22.851 15.9684 22.1704 16.1759 21.9143C15.3871 22.4312 14.558 22.1822 14.2575 21.8828C13.6535 21.2801 7.61898 15.2594 7.61898 15.2594C5.51507 13.1603 2.10391 13.1603 0 15.2594C0 15.2594 6.4499 21.6946 7.64793 22.8899H7.64837Z" fill="url(#paint3_linear_1612_52608)"/>
<defs>
<linearGradient id="paint0_linear_1612_52608" x1="10.5524" y1="5.9321" x2="18.1799" y2="13.5231" gradientUnits="userSpaceOnUse">
<stop stop-color="#80FFDC"/>
<stop offset="1" stop-color="#48C0E3"/>
</linearGradient>
<linearGradient id="paint1_linear_1612_52608" x1="16.414" y1="7.72176" x2="28.0603" y2="19.3118" gradientUnits="userSpaceOnUse">
<stop offset="0.03" stop-color="#4FA8DE"/>
<stop offset="1" stop-color="#5E61CE"/>
</linearGradient>
<linearGradient id="paint2_linear_1612_52608" x1="19.6677" y1="26.0679" x2="12.0402" y2="18.4769" gradientUnits="userSpaceOnUse">
<stop stop-color="#80FFDC"/>
<stop offset="1" stop-color="#48C0E3"/>
</linearGradient>
<linearGradient id="paint3_linear_1612_52608" x1="13.8061" y1="24.2782" x2="2.15979" y2="12.6882" gradientUnits="userSpaceOnUse">
<stop offset="0.03" stop-color="#4FA8DE"/>
<stop offset="1" stop-color="#5E61CE"/>
</linearGradient>
</defs>
</svg>
