<?xml version="1.0" encoding="UTF-8"?>
<svg id="Layer_2" data-name="Layer 2" xmlns="http://www.w3.org/2000/svg" xmlns:xlink="http://www.w3.org/1999/xlink" viewBox="0 0 1059.2 193.86">
  <defs>
    <style>
      .cls-1 {
        fill: none;
      }

      .cls-1, .cls-2, .cls-3, .cls-4, .cls-5, .cls-6 {
        stroke-width: 0px;
      }

      .cls-2 {
        fill: url(#_Безымянный_градиент_27-2);
      }

      .cls-3 {
        fill: url(#_Безымянный_градиент_21-2);
      }

      .cls-4 {
        fill: url(#_Безымянный_градиент_27);
      }

      .cls-5 {
        fill: url(#_Безымянный_градиент_21);
      }

      .cls-6 {
        fill: #323038;
      }
    </style>
    <linearGradient id="_Безымянный_градиент_27" data-name="Безымянный градиент 27" x1="102.04" y1="-.66" x2="175.98" y2="72.75" gradientUnits="userSpaceOnUse">
      <stop offset="0" stop-color="#80ffdc"/>
      <stop offset="1" stop-color="#48c0e3"/>
    </linearGradient>
    <linearGradient id="_Безымянный_градиент_21" data-name="Безымянный градиент 21" x1="158.73" y1="16.69" x2="271.61" y2="128.77" gradientUnits="userSpaceOnUse">
      <stop offset=".03" stop-color="#4fa8de"/>
      <stop offset="1" stop-color="#5e61ce"/>
    </linearGradient>
    <linearGradient id="_Безымянный_градиент_27-2" data-name="Безымянный градиент 27" x1="2576.13" y1="-1606.72" x2="2650.06" y2="-1533.31" gradientTransform="translate(2766.33 -1412.2) rotate(-180)" xlink:href="#_Безымянный_градиент_27"/>
    <linearGradient id="_Безымянный_градиент_21-2" data-name="Безымянный градиент 21" x1="2632.82" y1="-1589.37" x2="2745.7" y2="-1477.29" gradientTransform="translate(2766.33 -1412.2) rotate(-180)" xlink:href="#_Безымянный_градиент_21"/>
  </defs>
  <g id="_Слой_1" data-name="Слой 1">
    <g>
      <path class="cls-1" d="M144.89,30.53s.05-.04.05-.04h0s0,0,0,0l-.04.04Z"/>
      <path class="cls-4" d="M144.89,30.53l.04-.04h0s36.62-37.06,73.34-.34c-34.65-34.65-101.18-45.51-147.02.34l-11.52,11.47c20.27,20.41,53.26,20.46,73.6.12l2.47-2.47c4.94-5.23,8.85-8.87,9.08-9.08Z"/>
      <path class="cls-5" d="M218.28,30.14c-36.73-36.73-73.31.31-73.34.34h0s-.05.04-.05.04c0,0-7.07,6.6-9.08,9.08,7.63-5.01,15.65-2.6,18.55.3,5.84,5.84,64.2,64.2,64.2,64.2,20.35,20.35,53.33,20.35,73.68,0,0,0-62.38-62.38-73.96-73.96Z"/>
      <path class="cls-1" d="M147.35,163.33s-.05.04-.05.04h0s0,0,0,0l.04-.04Z"/>
      <path class="cls-2" d="M147.35,163.33l-.04.04h0s-36.62,37.06-73.34.34c34.65,34.65,101.18,45.51,147.02-.34l11.52-11.47c-20.27-20.41-53.26-20.46-73.6-.12l-2.47,2.47c-4.94,5.23-8.85,8.87-9.08,9.08Z"/>
      <path class="cls-3" d="M73.96,163.71c36.73,36.73,73.31-.31,73.34-.34h0s.05-.04.05-.04c0,0,7.07-6.6,9.08-9.08-7.63,5.01-15.65,2.6-18.55-.3-5.84-5.84-64.2-64.2-64.2-64.2-20.35-20.35-53.33-20.35-73.68,0,0,0,62.38,62.38,73.96,73.96Z"/>
      <path class="cls-1" d="M147.88,163.49s-.05.04-.05.04h0s0,0,0,0l.04-.04Z"/>
      <path class="cls-1" d="M148.53,163.54s-.05.04-.05.04h0s0,0,0,0l.04-.04Z"/>
      <path class="cls-6" d="M355.75,35.11h19.86c8.44,0,15.28,6.84,15.28,15.28v84.56h67.23v17.82c0,8.44-6.84,15.28-15.28,15.28h-87.08V35.11Z"/>
      <path class="cls-6" d="M470.34,103.11c0-38.71,27.25-68,63.42-68,17.32,0,31.84,6.88,42.28,18.34h0c0-8.44,6.84-15.28,15.28-15.28h17.82v129.89h-17.82c-8.44,0-15.28-6.84-15.28-15.28h0c-10.44,11.47-24.96,18.34-42.28,18.34-36.16,0-63.42-29.29-63.42-68ZM576.04,103.11c0-20.37-15.28-35.91-35.9-35.91-19.53,0-35.03,15.1-35.64,34.62-.66,21.01,14.83,37.2,35.64,37.2s35.91-15.53,35.91-35.91Z"/>
      <path class="cls-6" d="M633.11,38.17h18.59c8.02,0,14.52,6.5,14.52,14.52h0c10.62-11.95,25.67-18.08,43.41-17.54,27.11.83,48.54,23.34,48.54,50.46v82.45s-33.11,0-33.11,0v-71.82c0-17.58-11.21-29.04-28.27-29.04-18.34,0-30.56,11.71-30.56,29.54v71.31h-33.11V38.17Z"/>
      <path class="cls-6" d="M772.73,103.11c0-38.71,30.05-68,69.79-68,34.63,0,61.63,22.16,66.73,52.98h-35.15c-4.33-12.48-16.55-20.89-31.58-20.89-20.38,0-35.66,15.54-35.66,35.91s15.28,35.91,35.66,35.91c15.02,0,27.25-8.4,31.58-20.88h35.15c-5.09,30.82-32.09,52.97-66.73,52.97-39.73,0-69.79-29.29-69.79-68Z"/>
      <path class="cls-6" d="M920.4,103.11c0-38.71,27.25-68,63.42-68,17.32,0,31.84,6.88,42.28,18.34h0c0-8.44,6.84-15.28,15.28-15.28h17.82v129.89h-17.82c-8.44,0-15.28-6.84-15.28-15.28h0c-10.44,11.47-24.96,18.34-42.28,18.34-36.16,0-63.42-29.29-63.42-68ZM1026.09,103.11c0-20.37-15.28-35.91-35.9-35.91-19.53,0-35.03,15.1-35.64,34.62-.66,21.01,14.83,37.2,35.64,37.2s35.91-15.53,35.91-35.91Z"/>
    </g>
  </g>
</svg>