<svg width="48" height="48" viewBox="0 0 48 48" fill="none" xmlns="http://www.w3.org/2000/svg">
<rect width="48" height="48" fill="#6938EF"/>
<path d="M29.8892 14.4493H14.7927L16.5944 11.3048C16.7014 11.1149 16.9052 11 17.1182 11H30.7728C30.9776 11 31.1651 11.1108 31.267 11.2884L33.351 14.9183C33.4203 15.0415 33.4203 15.1944 33.351 15.3175L30.8991 19.5899L33.139 23.5L31.1773 26.9247L27.1031 19.8208C27.0134 19.6648 27.0134 19.4709 27.1031 19.3149L29.8902 14.4503L29.8892 14.4493ZM14.649 32.3034L16.6026 35.7116C16.7045 35.8881 16.8971 36 17.1009 36H30.7514C30.9684 36 31.1682 35.8851 31.2782 35.6952L33.081 32.5507H18.2371L20.8939 27.9202C20.9835 27.7642 20.9835 27.5702 20.8939 27.4142L16.6882 20.0846L14.7305 23.501L17.1009 27.6328L14.649 31.9093C14.5797 32.0324 14.5797 32.1853 14.649 32.3044V32.3034Z" fill="#FCFCFD"/>
<path d="M20.0299 31.4167H33.128C33.4185 31.4167 33.6834 31.2606 33.8312 31.0048L37.828 24.0272C38.0573 23.6277 38.0573 23.1337 37.828 22.7342L33.9698 16L31.9918 19.4518L34.2399 23.3812L32.8335 25.8399L31.6891 27.8334L31.6157 27.9607H22.0079L20.0299 31.4167Z" fill="#FCFCFD"/>
<path d="M10.1695 24.1629L14.0779 31L16.0281 27.5891L13.7031 23.5236L16.2129 19.1363L16.2933 18.9983H26.02L27.9701 15.5833H14.8033C14.517 15.5833 14.2517 15.7376 14.1101 15.9903L10.1695 22.8852C9.94348 23.28 9.94348 23.7681 10.1695 24.1629Z" fill="#FCFCFD"/>
</svg>
